<svg width="192" height="192" viewBox="0 0 192 192" fill="none" xmlns="http://www.w3.org/2000/svg">
  <!-- Background -->
  <rect width="192" height="192" rx="48" fill="#E0E5EC"/>

  <!-- Neumorphic shadows -->
  <g filter="url(#light)">
    <rect x="16" y="16" width="160" height="160" rx="40" fill="#E0E5EC"/>
  </g>

  <!-- Credit Card Icon (centered and scaled) -->
  <g transform="translate(36, 36) scale(3.75)">
    <path d="M0 26.016q0 0.832 0.576 1.408t1.44 0.576h28q0.8 0 1.408-0.576t0.576-1.408v-20q0-0.832-0.576-1.408t-1.408-0.608h-28q-0.832 0-1.44 0.608t-0.576 1.408v20zM2.016 26.016v-14.016h28v14.016h-28zM2.016 8v-1.984h28v1.984h-28zM4 24h4v-1.984h-4v1.984zM4 20h6.016v-5.984h-6.016v5.984zM10.016 24h4v-1.984h-4v1.984zM16 24h4v-1.984h-4v1.984zM22.016 24h1.984v-1.984h-1.984v1.984zM26.016 24h1.984v-1.984h-1.984v1.984z"
          fill="#5A6B8C"/>
  </g>

  <defs>
    <!-- Light shadow -->
    <filter id="light" x="0" y="0" width="192" height="192" filterUnits="userSpaceOnUse" color-interpolation-filters="sRGB">
      <feFlood flood-opacity="0" result="BackgroundImageFix"/>
      <feColorMatrix in="SourceAlpha" type="matrix" values="0 0 0 0 0 0 0 0 0 0 0 0 0 0 0 0 0 0 127 0"/>
      <feOffset dx="-8" dy="-8"/>
      <feGaussianBlur stdDeviation="8"/>
      <feColorMatrix type="matrix" values="0 0 0 0 1 0 0 0 0 1 0 0 0 0 1 0 0 0 1 0"/>
      <feBlend mode="normal" in2="BackgroundImageFix" result="effect1_dropShadow"/>
      <feColorMatrix in="SourceAlpha" type="matrix" values="0 0 0 0 0 0 0 0 0 0 0 0 0 0 0 0 0 0 127 0"/>
      <feOffset dx="8" dy="8"/>
      <feGaussianBlur stdDeviation="8"/>
      <feColorMatrix type="matrix" values="0 0 0 0 0.678431 0 0 0 0 0.717647 0 0 0 0 0.776471 0 0 0 1 0"/>
      <feBlend mode="normal" in2="effect1_dropShadow" result="effect2_dropShadow"/>
      <feBlend mode="normal" in="SourceGraphic" in2="effect2_dropShadow" result="shape"/>
    </filter>
  </defs>
</svg>